<?xml version="1.0" encoding="UTF-8" standalone="no"?>
<!-- Created with Inkscape (http://www.inkscape.org/) -->

<svg
   width="50.00005mm"
   height="50.00005mm"
   viewBox="0 0 50.00005 50.00005"
   version="1.1"
   id="svg1"
   xmlns="http://www.w3.org/2000/svg"
   xmlns:svg="http://www.w3.org/2000/svg">
  <defs
     id="defs1" />
  <g
     id="layer1">
    <path
       id="path1"
       style="fill:#ffffff;stroke-width:0.132291"
       d="M 25.000024,0 C 11.192887,-1.3254858e-5 -1.3254858e-5,11.192887 0,25.000024 -1.3807144e-5,38.807162 11.192886,50.000062 25.000024,50.000049 38.807162,50.000063 50.000063,38.807162 50.000049,25.000024 50.000062,11.192886 38.807162,-1.3807144e-5 25.000024,0 Z M 24.499797,1.9998779 C 36.926342,1.9996377 47.000187,12.073252 47.000232,24.499797 47.000472,36.926544 36.926544,47.000472 24.499797,47.000232 12.073252,47.000187 1.9996377,36.926342 1.9998779,24.499797 1.9999226,12.073453 12.073453,1.9999226 24.499797,1.9998779 Z m 0.500227,2.793628 c -1.168742,-2e-7 -2.337642,0.069206 -3.025138,0.2067057 l 0.274919,2.8323852 -2.749703,0.521932 -1.37511,-2.8049967 c -0.824995,-1e-6 -2.200219,0.5501926 -2.75022,1.1001912 0.37968,1.2909116 0.72603,2.5266814 1.053166,3.7372397 l 4.207495,7.733378 1.861902,-0.121956 1.289327,2.495971 1.369425,-0.337964 -1.367875,0.595313 -1.488281,-2.407605 -1.712557,0.309025 0.276986,2.784326 1.923396,2.619995 -2.138887,-2.438094 -0.61805,-3.553788 -2.563151,-3.563607 c 1.306884,5.655724 1.982632,10.893311 2.026233,17.334343 -2.496892,0.127989 -5.018354,0.346331 -7.617107,0.664042 -0.36407,0.0445 -0.490965,0.3389 -0.401009,0.56379 l 0.874366,2.185913 2.199865,2.199865 2.481577,1.262801 2.19359,2.58761 2.45528,1.155174 3.319561,2.419802 2.199866,-1.37511 2.778575,-1.734701 1.222374,-1.741143 3.149002,-2.024079 1.822814,-2.472404 2.245672,-2.50662 c 0.14891,-0.234005 0.04807,-0.479883 -0.31626,-0.520898 -2.611931,-0.294079 -5.12707,-0.506509 -7.596435,-0.639238 0.0605,-9.289893 1.431039,-16.071357 4.119128,-25.2108639 -0.55,-0.549999 -1.924707,-1.1001923 -2.749703,-1.1001913 l -1.37511,2.749703 -2.749703,-0.3849894 0.274919,-2.9145508 C 27.337663,4.8627115 26.16877,4.793506 25.000024,4.7935059 Z m 0,20.8312861 c 0.867775,-0.0018 1.55812,1.750617 1.51257,3.025139 l -0.13746,3.849894 h -2.750219 l -0.13746,-3.849894 c -0.04225,-1.182852 0.644797,-3.023639 1.512569,-3.025139 z" />
  </g>
</svg>
