<?xml version="1.0" encoding="UTF-8" standalone="no"?>
<!-- Created with Inkscape (http://www.inkscape.org/) -->

<svg
   width="100.0001mm"
   height="100.0001mm"
   viewBox="0 0 100.0001 100.0001"
   version="1.1"
   id="svg1"
   xmlns="http://www.w3.org/2000/svg"
   xmlns:svg="http://www.w3.org/2000/svg">
  <defs
     id="defs1" />
  <g
     id="layer1"
     style="fill:#000000">
    <path
       id="path1"
       style="fill:#000000;stroke:#000000;stroke-width:0"
       d="M 50.000049,0 A 50,50 0 0 0 0,50.000049 50,50 0 0 0 50.000049,100.0001 50,50 0 0 0 100.0001,50.000049 50,50 0 0 0 50.000049,0 Z M 47.499943,2.5001058 A 45,45 0 0 1 92.49978,47.499943 45,45 0 0 1 47.499943,92.49978 45,45 0 0 1 2.5001058,47.499943 45,45 0 0 1 47.499943,2.5001058 Z M 28.99978,16.999996 c -4.97058,1.06e-4 -9.000177,3.283309 -8.999967,7.333402 -2.11e-4,4.050105 4.029387,7.333296 8.999967,7.333403 1.103312,-1.49e-4 2.197308,-0.165326 3.227193,-0.487826 h 1.97559 L 26.00048,75.666699 c -2.09e-4,4.05029 4.029155,7.333574 8.999968,7.333403 h 35.999869 c 4.970571,-1.06e-4 9.000178,-3.28331 8.999968,-7.333403 2.11e-4,-4.050095 -4.029397,-7.333812 -8.999968,-7.333919 h -5.112866 l 8.112167,-43.999382 c 2.1e-4,-4.050291 -4.029147,-7.333574 -8.999968,-7.333402 z m -0.599446,0.733289 c 3.976078,1.98e-4 7.199318,2.626543 7.19956,5.866308 l -0.996838,5.404321 h -3.40186 c -0.886319,0.305332 -1.838584,0.462727 -2.800862,0.463021 -3.976683,8.1e-5 -7.200864,-2.627096 -7.200594,-5.867342 2.42e-4,-3.239963 3.224273,-5.866389 7.200594,-5.866308 z m 4.503601,0 h 31.495752 c 3.976078,1.98e-4 7.199317,2.626543 7.19956,5.866308 L 63.351689,68.33278 H 35.000448 c -1.103311,1.49e-4 -2.196801,0.165843 -3.226677,0.488342 l 1.025261,2.175061 c 0.886319,-0.305321 1.839101,-0.462727 2.801379,-0.463021 3.976683,-8.2e-5 7.200347,2.627086 7.200077,5.867343 -2.42e-4,3.239962 -3.223756,5.866389 -7.200077,5.866308 -3.97607,-1.98e-4 -7.199318,-2.626544 -7.199561,-5.866308 l 9.599414,-52.067107 c 1.51e-4,-2.908744 -2.083684,-5.414549 -5.096329,-6.600113 z m 8.51886,52.799877 h 30.176969 c 3.976675,-8.2e-5 7.200864,2.627086 7.200594,5.867343 -2.42e-4,3.239962 -3.224282,5.866389 -7.200594,5.866308 H 38.905119 c 3.012293,-1.185681 5.095447,-3.691599 5.095296,-6.600114 1.04e-4,-1.999642 -0.984873,-3.810562 -2.57762,-5.133537 z" />
  </g>
</svg>
