<?xml version="1.0" encoding="UTF-8" standalone="no"?>
<!-- Created with Inkscape (http://www.inkscape.org/) -->

<svg
   width="200.0002mm"
   height="100.0001mm"
   viewBox="0 0 200.0002 100.0001"
   version="1.1"
   id="svg1"
   xmlns="http://www.w3.org/2000/svg"
   xmlns:svg="http://www.w3.org/2000/svg">
  <defs
     id="defs1" />
  <g
     id="layer1"
     style="fill:#000000">
    <path
       id="rect1"
       style="fill:#000000;stroke:#000000;stroke-width:0"
       d="M 0,0 V 100.0001 H 100.0001 200.0002 V 0 H 100.0001 Z M 2.5001058,2.5001058 H 84.386064 C 64.421071,9.0595852 50.000027,27.840354 50.000049,50.000049 c -2e-5,19.793114 11.502638,36.897323 28.186393,44.999837 H 2.5001058 Z m 96.2499392,0 A 46.25,46.25 0 0 1 144.99993,48.749996 46.25,46.25 0 0 1 98.750045,94.999886 46.25,46.25 0 0 1 52.500155,48.749996 46.25,46.25 0 0 1 98.750045,2.5001058 Z m 16.864085,0 h 79.38585 V 94.999886 h -73.18674 c 16.68375,-8.102514 28.18693,-25.206723 28.18691,-44.999837 2e-5,-22.159578 -14.42119,-40.9403691 -34.38602,-47.4999432 z M 43.951839,10.826729 c -1.099998,4.399996 -1.100448,4.400452 -5.500439,5.50044 4.399991,1.099999 4.400441,1.099938 5.500439,5.499922 1.099999,-4.399984 1.099424,-4.399923 5.499406,-5.499922 -4.399982,-1.099988 -4.399407,-1.100444 -5.499406,-5.50044 z m 0.425297,0.569475 c 0.05412,0.202487 0.106914,0.388469 0.159164,0.569991 a 4.2074996,4.2075014 0 0 1 3.338297,3.643188 c 0.304128,0.09581 0.634637,0.191817 1.007691,0.291455 a 4.95,4.9499995 0 0 0 -4.505152,-4.504634 z m -0.854728,0.01137 a 4.95,4.9499995 0 0 0 -4.490165,4.490166 c 0.173721,-0.04642 0.331212,-0.09191 0.489376,-0.136943 a 4.2074996,4.2075014 0 0 1 3.863846,-3.86333 c 0.04506,-0.158169 0.0905,-0.31617 0.136943,-0.489893 z m 5.35988,5.345927 c -0.407693,0.1089 -0.764982,0.213497 -1.09089,0.318327 a 4.2074996,4.2075014 0 0 1 -3.095935,3.095418 c -0.10483,0.325842 -0.20946,0.68278 -0.318327,1.090373 a 4.95,4.9499995 0 0 0 4.505152,-4.504118 z m -9.850045,0.0031 a 4.95,4.9499995 0 0 0 4.490165,4.490165 C 43.423828,20.878057 43.328384,20.552129 43.233537,20.25096 A 4.2074996,4.2075014 0 0 1 39.590348,16.91318 C 39.412033,16.86181 39.230784,16.809741 39.032243,16.7566 Z m 112.197807,0.208773 c -0.89999,3.599996 -0.90051,3.599993 -4.5005,4.499983 3.59999,0.9 3.60051,0.899997 4.5005,4.499984 0.89999,-3.599987 0.89948,-3.599984 4.49946,-4.499984 -3.59998,-0.89999 -3.59947,-0.899987 -4.49946,-4.499983 z m 0.34829,0.465604 c 0.0443,0.165672 0.0875,0.317604 0.13023,0.466122 a 3.4424996,3.4425012 0 0 1 2.7311,2.980696 c 0.24884,0.07839 0.51902,0.157224 0.82424,0.238746 a 4.05,4.0499996 0 0 0 -3.68557,-3.685564 z m -0.69969,0.0093 a 4.05,4.0499996 0 0 0 -3.67368,3.673678 c 0.14214,-0.03798 0.27108,-0.07477 0.40049,-0.111621 a 3.4424996,3.4425012 0 0 1 3.16105,-3.161565 c 0.0369,-0.12941 0.0741,-0.258355 0.11214,-0.400492 z m 4.38526,4.373893 c -0.33356,0.0891 -0.6258,0.17468 -0.89245,0.26045 a 3.4424996,3.4425012 0 0 1 -2.53267,2.532662 c -0.0858,0.266597 -0.17138,0.558966 -0.26045,0.892452 a 4.05,4.0499996 0 0 0 3.68557,-3.685564 z m -8.05894,0.0026 a 4.05,4.0499996 0 0 0 3.67368,3.673678 c -0.0806,-0.301671 -0.15857,-0.568527 -0.23617,-0.814938 a 3.4424996,3.4425012 0 0 1 -2.98069,-2.730582 c -0.14589,-0.04203 -0.29437,-0.08468 -0.45682,-0.128158 z m -50.405711,0.07338 v 5.964494 h 1.72496 l -0.001,3.526916 h 4.471041 v -3.526916 h 1.77457 v -5.964494 z m 9.771501,3.856095 v 5.984131 h 1.22266 v 3.536735 h 3.37912 v -2.977596 h 1.4733 v -6.54327 z m -17.153479,0.781865 v 7.998478 h 1.235067 v 2.977596 H 94.03147 V 33.96745 h 1.568379 v -7.439339 z m 7.381978,1.823144 v 7.219198 h 7.969541 v -7.219198 h -1.35186 v 3.526917 h -5.315951 v -3.526931 z m -77.080049,0.88262 c -0.999998,3.999996 -1.00022,4.000222 -5.000212,5.000211 3.999992,0.999999 4.000214,1.000226 5.000212,5.000212 0.999999,-3.999986 0.999711,-4.000213 4.999695,-5.000212 -3.999984,-0.999989 -3.999696,-1.000215 -4.999695,-5.000211 z m 0.387056,0.517797 c 0.0492,0.18408 0.09719,0.352778 0.144694,0.517798 a 3.8249996,3.8250013 0 0 1 3.03444,3.311943 c 0.27648,0.0871 0.577084,0.17452 0.916224,0.2651 a 4.5,4.4999995 0 0 0 -4.095358,-4.094841 z m -0.777213,0.01034 a 4.5,4.4999995 0 0 0 -4.081922,4.081921 c 0.157928,-0.0422 0.30115,-0.0836 0.444934,-0.12454 a 3.8249996,3.8250013 0 0 1 3.512448,-3.512447 c 0.04096,-0.14379 0.08232,-0.287005 0.12454,-0.444934 z m 87.241707,2.464965 v 8.289934 h 6.07508 v -7.730278 h -1.05007 v 2.977079 h -4.22455 V 32.226977 Z M 94.454183,34.46405 v 3.536735 h -4.224032 v -2.977079 h -0.81287 v 4.879805 h 6.182568 V 34.46405 Z m -70.252559,0.157613 c -0.37063,0.099 -0.695391,0.194088 -0.991671,0.289388 a 3.8249996,3.8250013 0 0 1 -2.814299,2.814299 c -0.0953,0.29622 -0.190418,0.620614 -0.289388,0.991154 a 4.5,4.4999995 0 0 0 4.095358,-4.094841 z m -8.954493,0.0031 a 4.5,4.4999995 0 0 0 4.081922,4.081921 C 19.239433,38.371492 19.152761,38.0751 19.066536,37.80131 a 3.8249996,3.8250013 0 0 1 -3.311942,-3.03444 c -0.162104,-0.0467 -0.326971,-0.0938 -0.507463,-0.14211 z m 84.752969,3.343982 -4.544945,7.07192 -6.606831,5.781042 -7.808826,1.896008 -12.472107,17.42271 -4.077787,8.937439 A 45.787498,45.787498 0 0 0 98.750045,94.537382 45.787498,45.787498 0 0 0 129.80758,82.280766 l -4.03076,-5.991883 -12.24887,-8.182446 -6.85901,-16.687353 -1.66915,-9.900171 z m 81.47719,1.156002 c -1.42999,5.719994 -1.42995,5.720483 -7.14995,7.150468 5.72,1.429998 5.71996,1.430488 7.14995,7.150468 1.43,-5.71998 1.42948,-5.72047 7.14944,-7.150468 -5.71996,-1.429985 -5.71944,-1.430474 -7.14944,-7.150468 z m 0.55346,0.740523 c 0.0703,0.263234 0.1393,0.504544 0.20722,0.740523 a 5.4697495,5.4697518 0 0 1 4.33927,4.736145 c 0.39535,0.124553 0.82502,0.249776 1.31,0.379305 a 6.435,6.4349992 0 0 0 -5.85649,-5.855973 z m -1.11104,0.01499 a 6.435,6.4349992 0 0 0 -5.83737,5.836853 c 0.22583,-0.06035 0.43051,-0.119223 0.63613,-0.177767 a 5.4697495,5.4697518 0 0 1 5.02295,-5.022949 c 0.0585,-0.20562 0.11786,-0.410297 0.17829,-0.636137 z m 6.96753,6.94893 c -0.53001,0.14157 -0.99432,0.277649 -1.418,0.413928 a 5.4697495,5.4697518 0 0 1 -4.02456,4.024561 c -0.13628,0.423594 -0.2724,0.887613 -0.41393,1.417484 a 6.435,6.4349992 0 0 0 5.85649,-5.855973 z m -12.8049,0.0047 a 6.435,6.4349992 0 0 0 5.83737,5.836853 c -0.12818,-0.479322 -0.25239,-0.902976 -0.37569,-1.294495 a 5.4697495,5.4697518 0 0 1 -4.73615,-4.33927 c -0.23182,-0.06678 -0.46742,-0.134005 -0.72553,-0.203088 z M 23.556702,70.565719 c -1.499997,5.999994 -1.500331,6.000333 -7.500318,7.500317 5.999987,1.499998 6.000321,1.500338 7.500318,7.500317 1.499999,-5.999979 1.499309,-6.000319 7.499284,-7.500317 -5.999975,-1.499984 -5.999285,-1.500323 -7.499284,-7.500317 z m 0.580326,0.776696 c 0.0738,0.27612 0.145791,0.529167 0.217041,0.776697 a 5.7374994,5.737502 0 0 1 4.55166,4.967656 c 0.414721,0.130649 0.865883,0.262038 1.374593,0.397908 a 6.75,6.7499993 0 0 0 -6.143294,-6.142261 z m -1.16582,0.01499 a 6.75,6.7499993 0 0 0 -6.122624,6.12314 c 0.236892,-0.0633 0.451466,-0.125659 0.667143,-0.187069 a 5.7374994,5.737502 0 0 1 5.268929,-5.268412 c 0.06144,-0.215685 0.12322,-0.430765 0.186552,-0.667659 z m 76.546232,0.33538 c 1.8,7.199984 1.79949,7.200506 8.99945,9.000484 -7.19996,1.799996 -7.19945,1.800516 -8.99945,9.000484 -1.799993,-7.199968 -1.79999,-7.200488 -8.999968,-9.000484 7.199978,-1.799978 7.199975,-1.8005 8.999968,-9.000484 z m 0.69711,0.932242 a 8.1,8.0999991 0 0 1 7.37165,7.37061 C 106.97576,79.83259 106.43436,79.67544 105.93669,79.51866 A 6.8849993,6.8850024 0 0 0 100.475,73.55675 c -0.0855,-0.297034 -0.17185,-0.600382 -0.26045,-0.931726 z m -1.399393,0.0186 c -0.076,0.284274 -0.150029,0.542163 -0.223759,0.800985 a 6.8849993,6.8850024 0 0 0 -6.322611,6.322094 c -0.258813,0.07369 -0.516714,0.148316 -0.800985,0.224276 a 8.1,8.0999991 0 0 1 7.347355,-7.347355 z m 63.413703,3.209623 c -1.09999,4.399996 -1.10045,4.399935 -5.50044,5.499923 4.39999,1.099999 4.40045,1.100455 5.50044,5.500439 1.1,-4.399984 1.09943,-4.40044 5.4994,-5.500439 -4.39997,-1.099988 -4.3994,-1.099927 -5.4994,-5.499923 z m 0.42581,0.569474 c 0.0541,0.202488 0.10691,0.387953 0.15916,0.569475 a 4.2074996,4.2075014 0 0 1 3.33779,3.643188 c 0.30413,0.09581 0.63463,0.191817 1.00769,0.291455 a 4.95,4.9499994 0 0 0 -4.50464,-4.504118 z m -0.85524,0.01137 a 4.95,4.9499994 0 0 0 -4.49017,4.490165 c 0.17372,-0.04642 0.33121,-0.09191 0.48938,-0.136942 a 4.2074996,4.2075014 0 0 1 3.86384,-3.863847 c 0.0451,-0.158169 0.0905,-0.315653 0.13695,-0.489376 z M 30.280322,78.646879 c -0.555944,0.1485 -1.043345,0.291132 -1.487764,0.434082 a 5.7374994,5.737502 0 0 1 -4.221448,4.221448 c -0.142951,0.444329 -0.285628,0.930921 -0.434082,1.486731 a 6.75,6.7499993 0 0 0 6.143294,-6.142261 z m -13.431738,0.0047 a 6.75,6.7499993 0 0 0 6.122624,6.12314 c -0.13443,-0.502784 -0.264437,-0.947372 -0.393775,-1.358056 a 5.7374994,5.737502 0 0 1 -4.967655,-4.55166 c -0.243156,-0.07005 -0.490456,-0.140959 -0.761194,-0.213424 z m 90.737616,2.739368 a 8.1,8.0999991 0 0 1 -7.37165,7.370609 c 0.17815,-0.66697 0.34936,-1.250676 0.5209,-1.78387 a 6.8849993,6.8850024 0 0 0 5.06533,-5.065841 c 0.53331,-0.17154 1.1183,-0.3427 1.78542,-0.520898 z m -16.118398,0.0052 c 0.324887,0.08696 0.621854,0.171739 0.913639,0.255799 a 6.8849993,6.8850024 0 0 0 5.961393,5.462198 c 0.155205,0.492822 0.311007,1.026535 0.472323,1.629875 a 8.1,8.0999991 0 0 1 -7.347355,-7.347872 z m 75.691508,0.383439 c -0.4077,0.1089 -0.76498,0.213497 -1.09089,0.318327 a 4.2074996,4.2075014 0 0 1 -3.09542,3.095935 c -0.10483,0.325842 -0.20946,0.682779 -0.31833,1.090373 a 4.95,4.9499994 0 0 0 4.50464,-4.504635 z m -9.85005,0.0036 a 4.95,4.9499994 0 0 0 4.49017,4.489648 c -0.0986,-0.368708 -0.19404,-0.694636 -0.28887,-0.995805 a 4.2074996,4.2075014 0 0 1 -3.64268,-3.33778 c -0.17832,-0.05137 -0.36007,-0.102922 -0.55862,-0.156063 z" />
  </g>
</svg>
