<?xml version="1.0" encoding="UTF-8" standalone="no"?>
<!-- Created with Inkscape (http://www.inkscape.org/) -->

<svg
   width="24.000076mm"
   height="20.846273mm"
   viewBox="0 0 24.000076 20.846273"
   version="1.1"
   id="svg1"
   xmlns="http://www.w3.org/2000/svg"
   xmlns:svg="http://www.w3.org/2000/svg">
  <defs
     id="defs1" />
  <g
     id="layer1"
     transform="translate(-104.37203,-115.15365)">
    <path
       id="path4-5-9"
       style="fill:#ffffff;stroke:#000000;stroke-width:0"
       d="m 116.37233,115.15365 c -1.2,4.19999 -6.00032,5.40015 -12.0003,6.00015 5.99998,1.79999 10.80018,2.39993 12.0003,14.84612 1.19988,-12.44619 5.9998,-13.04613 11.99978,-14.84612 -5.99998,-0.6 -10.79978,-1.80016 -11.99978,-6.00015 z m 0,1.11827 c 1,3.5 4.99992,4.50022 9.9999,5.00022 -4.99998,1.49999 -9,2.00002 -9.9999,12.37185 -1.0001,-10.37183 -4.99992,-10.87186 -9.99991,-12.37185 4.99999,-0.5 8.99991,-1.50022 9.99991,-5.00022 z m 0,1.91875 a 5.000001,3.7499995 0 0 0 -0.85783,0.0651 c -0.15567,0.19409 -0.32669,0.37549 -0.51212,0.5457 a 4.2500019,2.999999 0 0 1 1.11983,-0.11059 4.2500019,2.999999 0 0 1 1.83762,0.29921 c -0.27156,-0.22367 -0.51651,-0.46816 -0.73174,-0.7369 a 5.000001,3.7499995 0 0 0 -0.85576,-0.0625 z m 3.21582,1.7756 a 4.2500019,2.999999 0 0 1 0.78393,1.72444 4.2500019,2.999999 0 0 1 -4.24987,3.00034 4.2500019,2.999999 0 0 1 -4.24987,-3.00034 4.2500019,2.999999 0 0 1 0.51418,-1.41955 c -0.19526,0.0682 -0.39639,0.13209 -0.60203,0.19276 a 5.000001,3.7499995 0 0 0 -0.41237,1.47691 5.000001,3.7499995 0 0 0 0.19172,1.01027 c 0.98521,0.53559 1.86118,1.2565 2.59519,2.34043 a 5.000001,3.7499995 0 0 0 2.2133,0.39946 5.000001,3.7499995 0 0 0 2.2133,-0.39946 c 0.73391,-1.08378 1.60961,-1.80486 2.59467,-2.34043 a 5.000001,3.7499995 0 0 0 0.19172,-1.01027 5.000001,3.7499995 0 0 0 -0.40566,-1.47485 c -0.48987,-0.14428 -0.9496,-0.31038 -1.37821,-0.49971 z" />
  </g>
</svg>
