<?xml version="1.0" encoding="UTF-8" standalone="no"?>
<!-- Created with Inkscape (http://www.inkscape.org/) -->

<svg
   width="100.0001mm"
   height="100.0001mm"
   viewBox="0 0 100.0001 100.0001"
   version="1.1"
   id="svg1"
   xmlns="http://www.w3.org/2000/svg"
   xmlns:svg="http://www.w3.org/2000/svg">
  <defs
     id="defs1" />
  <g
     id="layer1"
     transform="translate(-50.000051)">
    <path
       id="rect1"
       style="fill:#ffffff;stroke:#000000;stroke-width:0"
       d="M 100.0001,0 A 50,50 0 0 0 79.678341,4.3511556 c -0.323739,0.1443215 -0.64267,0.2970835 -0.962732,0.4480347 A 50,50 0 0 0 73.293717,7.7597331 C 73.005646,7.942162 72.729237,8.1405791 72.44519,8.3286906 A 50,50 0 0 0 67.431543,12.08195 c -0.192345,0.165254 -0.369353,0.347103 -0.559139,0.515214 a 50,50 0 0 0 -4.413684,4.413684 c -0.101908,0.115795 -0.214377,0.221739 -0.315226,0.338481 a 50,50 0 0 0 -3.928443,5.248258 c -0.125555,0.190918 -0.261477,0.374161 -0.384472,0.566891 a 50,50 0 0 0 -3.109371,5.693192 c -0.101775,0.217408 -0.208236,0.432022 -0.306958,0.651123 a 50,50 0 0 0 -2.260327,6.060095 c -0.0736,0.244129 -0.143476,0.489666 -0.213424,0.735356 a 50,50 0 0 0 -1.37356,6.31486 c -0.03734,0.25197 -0.05997,0.508527 -0.09353,0.761711 a 50,50 0 0 0 -0.473356,6.619234 50,50 0 0 0 7.933366,27.024707 c 0.0054,0.0083 0.01168,0.01596 0.01705,0.02429 a 50,50 0 0 0 4.175972,5.578987 c 0.09895,0.114731 0.206471,0.221563 0.306442,0.33538 a 50,50 0 0 0 4.663798,4.663798 c 0.157992,0.138249 0.324469,0.266794 0.484208,0.403077 a 50,50 0 0 0 5.199166,3.891752 c 0.165638,0.107764 0.336859,0.207312 0.503845,0.313159 a 50,50 0 0 0 26.7162,7.764901 50,50 0 0 0 26.71206,-7.762834 c 0.16922,-0.107241 0.34273,-0.208084 0.51057,-0.317293 a 50,50 0 0 0 5.19554,-3.889685 c 0.15985,-0.136368 0.32664,-0.26474 0.48473,-0.403077 a 50,50 0 0 0 4.65863,-4.658113 c 0.10273,-0.116921 0.21306,-0.226798 0.31471,-0.344682 a 50,50 0 0 0 4.16719,-5.566585 c 0.008,-0.01242 0.0168,-0.02426 0.0248,-0.03669 a 50,50 0 0 0 7.4228,-19.905245 50,50 0 0 0 0.50902,-7.115845 c 0,-1.224007 -0.0608,-2.433023 -0.14728,-3.63492 a 50,50 0 0 0 -0.0594,-0.803569 c -0.0974,-1.105658 -0.23382,-2.200272 -0.40204,-3.284037 a 50,50 0 0 0 -0.185,-1.069702 c -0.152,-0.855571 -0.32699,-1.70258 -0.52194,-2.542481 a 50,50 0 0 0 -0.33383,-1.35909 c -0.21519,-0.821194 -0.45208,-1.633461 -0.70745,-2.437577 a 50,50 0 0 0 -0.43149,-1.306897 c -0.32358,-0.928669 -0.66588,-1.848468 -1.0418,-2.751254 a 50,50 0 0 0 -0.47284,-1.066601 c -0.31979,-0.719785 -0.65432,-1.431304 -1.00666,-2.132686 a 50,50 0 0 0 -0.47852,-0.95188 c -0.49723,-0.939196 -1.02352,-1.860642 -1.57768,-2.763139 a 50,50 0 0 0 -0.45217,-0.713652 c -0.58031,-0.910192 -1.17955,-1.806967 -1.81591,-2.675805 a 50,50 0 0 0 -0.0956,-0.135393 c -0.70932,-0.961768 -1.45754,-1.89296 -2.23242,-2.800345 a 50,50 0 0 0 -0.31058,-0.360185 c -1.59556,-1.832972 -3.32029,-3.549407 -5.16403,-5.13302 a 50,50 0 0 0 -0.22841,-0.197404 c -0.93745,-0.795462 -1.90251,-1.559933 -2.89749,-2.2856488 a 50,50 0 0 0 -0.0971,-0.068213 c -0.95847,-0.695556 -1.94539,-1.3537467 -2.95339,-1.9812763 A 50,50 0 0 0 126.09876,7.3628581 C 125.10188,6.751651 124.07937,6.1780722 123.03797,5.6363485 A 50,50 0 0 0 122.47935,5.3552287 C 121.49567,4.859112 120.49652,4.3896739 119.47694,3.9578979 A 50,50 0 0 0 119.23252,3.8493774 C 118.17254,3.4072147 117.08886,3.0115687 115.99344,2.6416992 A 50,50 0 0 0 100.0001,0 Z M 98.750045,2.5001058 A 46.25,46.25 0 0 1 144.99993,48.749996 46.25,46.25 0 0 1 98.750045,94.999886 46.25,46.25 0 0 1 52.500155,48.749996 46.25,46.25 0 0 1 98.750045,2.5001058 Z M 96.799259,21.890137 v 5.964494 h 1.72496 l -0.001,3.526916 h 4.471041 v -3.526916 h 1.77457 v -5.964494 z m 9.771501,3.856095 v 5.984131 h 1.22266 v 3.536735 h 3.37912 v -2.977596 h 1.4733 v -6.54327 z m -17.153479,0.781865 v 7.998478 h 1.235067 v 2.977596 h 3.379122 v -3.536735 h 1.568379 v -7.439339 z m 7.381978,1.823144 v 7.219198 h 7.969541 v -7.219198 h -1.35186 v 3.526917 h -5.315951 v -3.526917 z m 9.771501,3.875732 v 8.289934 h 6.07508 v -7.730278 h -1.05007 v 2.977079 h -4.22455 v -3.536735 z m -12.116577,2.237073 v 3.536735 h -4.224032 v -2.977079 h -0.81287 v 4.879805 h 6.182568 v -5.439461 z m 5.545917,3.504696 -4.544945,7.07192 -6.606831,5.781042 -7.808826,1.896008 -12.472107,17.42271 -4.077787,8.937439 A 45.787498,45.787498 0 0 0 98.750045,94.537382 45.787498,45.787498 0 0 0 129.80758,82.280766 l -4.03076,-5.991883 -12.24887,-8.182446 -6.85901,-16.687353 -1.66915,-9.900171 z m 5.1e-4,32.521529 c 1.8,7.199986 1.79948,7.200506 8.99946,9.000484 -7.19998,1.799996 -7.19946,1.8 -8.99946,8.999968 -1.799987,-7.199968 -1.800502,-7.199972 -9.00048,-8.999968 7.199978,-1.799978 7.200493,-1.800498 9.00048,-9.000484 z m 0.6966,0.931726 a 8.1,8.0999991 0 0 1 7.37165,7.371126 c -0.61044,-0.163042 -1.15133,-0.32071 -1.649,-0.47749 a 6.8849993,6.8850024 0 0 0 -5.4622,-5.961393 c -0.0855,-0.297036 -0.17185,-0.600899 -0.26045,-0.932243 z m -1.398878,0.0186 c -0.076,0.284272 -0.150546,0.542164 -0.224276,0.800984 a 6.8849993,6.8850024 0 0 0 -6.322095,6.322612 c -0.258811,0.07369 -0.516715,0.147799 -0.800984,0.223759 a 8.1,8.0999991 0 0 1 7.347355,-7.347355 z m 8.770528,8.747269 a 8.1,8.0999991 0 0 1 -7.37165,7.371127 c 0.17815,-0.666972 0.34936,-1.251192 0.5209,-1.784388 a 6.8849993,6.8850024 0 0 0 5.06584,-5.06584 c 0.53331,-0.17154 1.11779,-0.342699 1.78491,-0.520899 z m -16.117883,0.0057 c 0.324885,0.08696 0.621335,0.171738 0.913122,0.255798 a 6.8849993,6.8850024 0 0 0 5.96191,5.462199 c 0.155205,0.49282 0.311007,1.026016 0.472323,1.629358 a 8.1,8.0999991 0 0 1 -7.347355,-7.347355 z" />
  </g>
</svg>
