<?xml version="1.0" encoding="UTF-8" standalone="no"?>
<!-- Created with Inkscape (http://www.inkscape.org/) -->

<svg
   width="14.901416mm"
   height="10.154419mm"
   viewBox="0 0 14.901416 10.154419"
   version="1.1"
   id="svg1"
   xmlns="http://www.w3.org/2000/svg"
   xmlns:svg="http://www.w3.org/2000/svg">
  <defs
     id="defs1" />
  <g
     id="layer1"
     transform="translate(-96.844218,-135.72557)">
    <path
       id="rect7-7"
       style="fill:#000000;stroke:#000000;stroke-width:0"
       d="m 101.57985,135.72557 v 3.25148 h 1.10639 l -5.2e-4,1.92288 h 2.86804 v -1.92288 h 1.13844 v -3.25148 z m 6.26835,2.10219 v 3.26234 h 0.78445 v 1.92804 h 2.16782 v -1.62315 h 0.94516 v -3.56723 z m -11.003982,0.42633 v 4.36046 h 0.7922 v 1.62316 h 2.167826 v -1.92805 h 1.006136 v -4.05557 z m 4.735632,0.99374 v 3.93568 h 5.11235 v -3.93568 h -0.86713 v 1.92288 h -3.41013 v -1.92288 z m 6.26835,2.11305 v 4.5191 h 3.89743 v -4.21421 h -0.67386 v 1.62316 h -2.70991 v -1.92805 z m -7.77265,1.21956 v 1.92805 h -2.709917 v -1.62315 h -0.521415 v 2.6603 h 3.966162 v -2.9652 z" />
  </g>
</svg>
