<?xml version="1.0" encoding="UTF-8" standalone="no"?>
<!-- Created with Inkscape (http://www.inkscape.org/) -->

<svg
   width="9.999898mm"
   height="10.000415mm"
   viewBox="0 0 9.999898 10.000415"
   version="1.1"
   id="svg1"
   xmlns="http://www.w3.org/2000/svg"
   xmlns:svg="http://www.w3.org/2000/svg">
  <defs
     id="defs1" />
  <g
     id="layer1"
     transform="translate(-91.968035,-118.46441)">
    <path
       id="path4-7"
       style="fill:#000000;stroke:#000000;stroke-width:0"
       d="m 96.968252,118.4644 c -0.999999,4 -1.000218,4.00022 -5.000214,5.00021 3.999996,1 4.000215,1.00022 5.000214,5.00021 1,-3.99999 0.9997,-4.00021 4.999688,-5.00021 -3.999988,-0.99999 -3.999688,-1.00021 -4.999688,-5.00021 z m 0.38705,0.5178 c 0.0492,0.18408 0.0972,0.35278 0.1447,0.5178 a 3.8249996,3.8250013 0 0 1 3.034438,3.31194 c 0.27648,0.0871 0.57708,0.17452 0.91622,0.2651 a 4.5,4.4999995 0 0 0 -4.095358,-4.09484 z m -0.777209,0.0103 a 4.5,4.4999995 0 0 0 -4.081922,4.08192 c 0.157928,-0.0422 0.301149,-0.0836 0.444934,-0.12454 a 3.8249996,3.8250013 0 0 1 3.512447,-3.51244 c 0.04096,-0.14379 0.08232,-0.28701 0.124541,-0.44494 z m 4.872567,4.85965 c -0.37063,0.099 -0.69539,0.19409 -0.99167,0.28939 a 3.8249996,3.8250013 0 0 1 -2.814298,2.8143 c -0.0953,0.29622 -0.19042,0.62061 -0.28939,0.99115 a 4.5,4.4999995 0 0 0 4.095358,-4.09484 z m -8.954489,0.003 a 4.5,4.4999995 0 0 0 4.081922,4.08192 c -0.08962,-0.33519 -0.176292,-0.63158 -0.262517,-0.90537 a 3.8249996,3.8250013 0 0 1 -3.311942,-3.03444 c -0.162104,-0.0467 -0.326971,-0.0938 -0.507463,-0.14211 z" />
  </g>
</svg>
